<?xml version="1.0" standalone="no"?><!DOCTYPE svg PUBLIC "-//W3C//DTD SVG 1.1//EN" "http://www.w3.org/Graphics/SVG/1.1/DTD/svg11.dtd"><svg t="1598458765729" class="icon" viewBox="0 0 1024 1024" version="1.1" xmlns="http://www.w3.org/2000/svg" p-id="4835" xmlns:xlink="http://www.w3.org/1999/xlink" width="200" height="200"><defs><style type="text/css"></style></defs><path d="M800 520C800 365.36 674.64 240 520 240S240 365.36 240 520 365.36 800 520 800 800 674.64 800 520z m48 0C848 701.152 701.152 848 520 848S192 701.152 192 520 338.848 192 520 192 848 338.848 848 520z m-440-16h240a16 16 0 0 1 16 16v16a16 16 0 0 1-16 16h-240a16 16 0 0 1-16-16v-16a16 16 0 0 1 16-16z" p-id="4836" fill="#2C2C2C"></path></svg>